<svg xmlns="http://www.w3.org/2000/svg" version="1.1" xmlns:xlink="http://www.w3.org/1999/xlink" xmlns:svgjs="http://svgjs.dev/svgjs" width="1500" height="1500" viewBox="0 0 1500 1500"><rect width="1500" height="1500" fill="#000000"></rect><g transform="matrix(0.6666666666666666,0,0,0.6666666666666666,249.26304311729922,250.4061451641054)"><svg viewBox="0 0 247 247" data-background-color="#ffffff" preserveAspectRatio="xMidYMid meet" height="1500" width="1500" xmlns="http://www.w3.org/2000/svg" xmlns:xlink="http://www.w3.org/1999/xlink"><g id="tight-bounds" transform="matrix(1,0,0,1,0.18202835002711026,-0.10031785553402983)"><svg viewBox="0 0 246.6359432999458 247.2" height="247.2" width="246.6359432999458"><g><svg viewBox="0 0 395.52000000000004 396.424554717453" height="247.2" width="246.6359432999458"><g transform="matrix(1,0,0,1,0,266.71342452585884)"><svg viewBox="0 0 395.52000000000004 129.71113019159418" height="129.71113019159418" width="395.52000000000004"><g id="textblocktransform"><svg viewBox="0 0 395.52000000000004 129.71113019159418" height="129.71113019159418" width="395.52000000000004" id="textblock"><g><svg viewBox="0 0 395.52000000000004 81.53796923076924" height="81.53796923076924" width="395.52000000000004"><g transform="matrix(1,0,0,1,0,0)"><svg width="395.52000000000004" viewBox="1.6 -36.25 178.74 36.85" height="81.53796923076924" data-palette-color="#2257bf"><path d="M15.55-27Q20.85-27 24.53-24.93 28.2-22.85 28.2-18.5L28.2-18.5 18.95-18.5Q18.95-19.95 17.65-20.55L17.65-20.55Q16.75-21.05 15.4-21.05L15.4-21.05Q11.8-21.05 11.8-19.35L11.8-19.35Q11.8-18.4 13.05-18 14.3-17.6 17.15-17.15L17.15-17.15Q20.65-16.65 23-15.98 25.35-15.3 27.1-13.58 28.85-11.85 28.85-8.75L28.85-8.75Q28.85-3.7 25.08-1.55 21.3 0.6 15.2 0.6L15.2 0.6Q11.7 0.6 8.6-0.38 5.5-1.35 3.55-3.4 1.6-5.45 1.6-8.6L1.6-8.6 10.85-8.6 10.85-8.4Q10.9-6.7 12.28-6.03 13.65-5.35 15.2-5.35L15.2-5.35Q19.35-5.35 19.35-7.3L19.35-7.3Q19.35-8.3 18.05-8.75 16.75-9.2 13.8-9.7L13.8-9.7Q10.25-10.3 7.98-11 5.7-11.7 4-13.38 2.3-15.05 2.3-18.05L2.3-18.05Q2.3-22.9 5.98-24.95 9.65-27 15.55-27L15.55-27ZM43.85-29.5L33.9-29.5 33.9-36.25 43.85-36.25 43.85-29.5ZM43.85 0L33.9 0 33.9-26.4 43.85-26.4 43.85 0ZM63.85-27Q71.1-27 74.92-23.6 78.75-20.2 78.75-13.2L78.75-13.2 78.75-11.5 58.95-11.5Q58.95-8.65 60.22-7.2 61.5-5.75 64.25-5.75L64.25-5.75Q66.75-5.75 67.92-6.8 69.1-7.85 69.1-9.6L69.1-9.6 78.75-9.6Q78.75-4.8 75.1-2.1 71.45 0.6 64.45 0.6L64.45 0.6Q57.1 0.6 53.05-2.83 49-6.25 49-13.2L49-13.2Q49-20 52.95-23.5 56.9-27 63.85-27L63.85-27ZM64.25-20.65Q59.55-20.65 59-16.2L59-16.2 68.7-16.2Q68.7-18.25 67.52-19.45 66.35-20.65 64.25-20.65L64.25-20.65ZM101.74-27Q106.34-27 108.64-24.45 110.94-21.9 110.94-17.1L110.94-17.1 110.94 0 100.99 0 100.99-15.9Q100.99-17.6 100.12-18.63 99.24-19.65 97.64-19.65L97.64-19.65Q95.79-19.65 94.64-18.45 93.49-17.25 93.49-15.5L93.49-15.5 93.49 0 83.54 0 83.54-26.4 91.69-26.4 92.34-22.4Q93.89-24.5 96.42-25.75 98.94-27 101.74-27L101.74-27ZM135.09-27Q139.69-27 141.99-24.45 144.29-21.9 144.29-17.1L144.29-17.1 144.29 0 134.34 0 134.34-15.9Q134.34-17.6 133.47-18.63 132.59-19.65 130.99-19.65L130.99-19.65Q129.14-19.65 127.99-18.45 126.84-17.25 126.84-15.5L126.84-15.5 126.84 0 116.89 0 116.89-26.4 125.04-26.4 125.69-22.4Q127.24-24.5 129.77-25.75 132.29-27 135.09-27L135.09-27ZM163.29-27Q169.34-27 173.14-24.98 176.94-22.95 176.94-18.4L176.94-18.4 176.94-8.1Q176.94-7.25 177.34-6.7 177.74-6.15 178.54-6.15L178.54-6.15 180.34-6.15 180.34-0.4Q180.19-0.3 179.56-0.08 178.94 0.15 177.79 0.38 176.64 0.6 175.14 0.6L175.14 0.6Q172.24 0.6 170.36-0.28 168.49-1.15 167.79-2.7L167.79-2.7Q165.89-1.2 163.54-0.3 161.19 0.6 158.04 0.6L158.04 0.6Q148.74 0.6 148.74-6.8L148.74-6.8Q148.74-10.65 150.81-12.68 152.89-14.7 156.79-15.45 160.69-16.2 166.99-16.2L166.99-16.2 166.99-17.5Q166.99-19.05 165.91-19.85 164.84-20.65 163.14-20.65L163.14-20.65Q161.59-20.65 160.46-20.1 159.34-19.55 159.34-18.35L159.34-18.35 159.34-18.15 149.54-18.15Q149.49-18.4 149.49-18.85L149.49-18.85Q149.49-22.6 153.06-24.8 156.64-27 163.29-27L163.29-27ZM166.99-11.5Q162.74-11.5 160.71-10.58 158.69-9.65 158.69-8.1L158.69-8.1Q158.69-5.6 162.09-5.6L162.09-5.6Q164.04-5.6 165.51-6.65 166.99-7.7 166.99-9.25L166.99-9.25 166.99-11.5Z" opacity="1" transform="matrix(1,0,0,1,0,0)" fill="#ffffff" class="wordmark-text-0" data-fill-palette-color="primary" id="text-0"></path></svg></g></svg></g><g transform="matrix(1,0,0,1,75.54432000000001,100.7871268548923)"><svg viewBox="0 0 244.43136 28.924003336701883" height="28.924003336701883" width="244.43136"><g transform="matrix(1,0,0,1,0,0)"><svg width="244.43136" viewBox="3.33 -31.26 268.08000000000004 31.720000000000002" height="28.924003336701883" data-palette-color="#2257bf"><path d="M21.38-17.7L21.38-17.7Q24.14-22.24 29.31-22.24L29.31-22.24Q34.66-22.24 36.44-17.76L36.44-17.76Q37.07-16.09 37.07-13.91L37.07-13.91 37.07-1.61Q37.07-0.8 36.52-0.4 35.98 0 35.34 0L35.34 0Q34.66 0 34.11-0.43 33.56-0.86 33.56-1.61L33.56-1.61 33.56-14.14Q33.56-16.78 32.07-18.28L32.07-18.28Q30.69-19.54 28.51-19.54L28.51-19.54Q24.14-19.54 22.59-15.98L22.59-15.98Q21.95-14.66 21.95-12.76L21.95-12.76 21.95-1.61Q21.95-0.8 21.41-0.4 20.86 0 20.23 0L20.23 0Q19.54 0 18.99-0.43 18.45-0.86 18.45-1.61L18.45-1.61 18.45-14.14Q18.45-16.78 17.01-18.28L17.01-18.28Q15.63-19.54 13.85-19.54 12.07-19.54 10.92-19.14 9.77-18.74 8.85-17.82L8.85-17.82Q7.01-15.98 6.9-12.64L6.9-12.64 6.9-1.61Q6.9-0.8 6.32-0.4 5.75 0 5.11 0 4.48 0 3.91-0.43 3.33-0.86 3.33-1.61L3.33-1.61 3.33-20.17Q3.33-20.92 3.91-21.38 4.48-21.84 5-21.84 5.52-21.84 5.8-21.7 6.09-21.55 6.32-21.38L6.32-21.38Q6.9-20.92 6.9-20.23L6.9-20.23 6.9-18.16Q7.7-20.11 9.83-21.21L9.83-21.21Q11.72-22.24 14.25-22.24L14.25-22.24Q18.16-22.24 20.23-19.77L20.23-19.77Q20.92-18.85 21.38-17.7ZM63.22-11.55L63.22-11.55Q63.22-10.34 61.84-10.23L61.84-10.23 46.09-10.23Q46.32-4.37 50.69-2.64L50.69-2.64Q51.89-2.24 53.45-2.24L53.45-2.24Q56.66-2.24 60-4.6L60-4.6Q61.03-5.17 61.72-4.48L61.72-4.48Q62.07-4.14 61.95-3.79L61.95-3.79Q61.95-2.99 61.55-2.64L61.55-2.64Q58.39 0.52 53.22 0.46L53.22 0.46Q48.5 0.46 45.63-2.59L45.63-2.59Q42.41-5.75 42.41-10.92L42.41-10.92Q42.41-15.69 45.05-18.79L45.05-18.79Q47.81-22.24 52.87-22.24L52.87-22.24Q57.93-22.24 60.57-19.2L60.57-19.2Q63.1-16.44 63.22-11.55ZM46.2-12.59L59.83-12.59Q59.65-15.69 57.81-17.7L57.81-17.7Q56.09-19.54 52.87-19.54L52.87-19.54Q50.11-19.54 48.16-17.47L48.16-17.47Q46.38-15.4 46.2-12.59L46.2-12.59ZM68.62-1.61L68.62-20.17Q68.62-20.92 69.19-21.38 69.77-21.84 70.34-21.84L70.34-21.84Q71.55-21.84 71.89-20.92 72.24-20 72.06-18.16L72.06-18.16Q72.75-19.89 75.05-21.15L75.05-21.15Q77.06-22.24 79.05-22.24 81.03-22.24 82.41-21.75 83.79-21.26 84.94-20.23L84.94-20.23Q87.24-18.05 87.24-13.79L87.24-13.79 87.24-1.61Q87.24-0.8 86.63-0.4 86.03 0 85.4 0L85.4 0Q84.71 0 84.19-0.43 83.67-0.86 83.67-1.61L83.67-1.61 83.67-14.02Q83.67-16.72 82.18-18.16L82.18-18.16Q80.8-19.54 78.73-19.54L78.73-19.54Q75.97-19.54 74.02-17.93L74.02-17.93Q72.06-16.21 72.06-12.64L72.06-12.64 72.06-1.61Q72.06-0.8 71.49-0.4 70.91 0 70.22 0L70.22 0Q69.54 0 69.08-0.43 68.62-0.86 68.62-1.61L68.62-1.61ZM105.45-1.26L105.45-1.26Q105.45 0.46 101.37 0.46L101.37 0.46Q98.33 0.46 97.06-1.21L97.06-1.21Q95.68-2.99 95.57-7.07L95.57-7.07 95.57-19.14 93.04-19.14Q92.35-19.14 91.95-19.57 91.54-20 91.54-20.46L91.54-20.46Q91.54-20.92 91.89-21.38 92.23-21.84 93.04-21.84L93.04-21.84 95.8-21.84 96.03-28.05Q96.14-28.74 96.66-29.11 97.18-29.48 97.75-29.48 98.33-29.48 98.73-29.14 99.13-28.79 99.13-28.05L99.13-28.05 99.13-21.84 103.1-21.84Q103.79-21.84 104.16-21.38 104.53-20.92 104.53-20.46L104.53-20.46Q104.53-19.89 104.16-19.51 103.79-19.14 103.1-19.14L103.1-19.14 99.13-19.14 99.13-8.97Q99.13-4.71 99.42-3.82 99.71-2.93 100.34-2.59 100.97-2.24 101.89-2.24L101.89-2.24 104.13-2.41Q104.76-2.41 105.11-2.01 105.45-1.61 105.45-1.26ZM119.7-13.28L119.7-13.28Q120.91-13.28 122.12-13.22L122.12-13.22 122.12-15.06Q122.12-19.54 117.12-19.54L117.12-19.54Q114.88-19.54 113.84-19.14L113.84-19.14Q112-18.45 111.2-17.96 110.39-17.47 109.93-17.47 109.47-17.47 109.07-17.82 108.67-18.16 108.67-18.74L108.67-18.74Q108.67-19.2 109.19-19.66L109.19-19.66Q111.89-22.24 117.17-22.24L117.17-22.24Q123.27-22.24 124.99-18.16L124.99-18.16Q125.56-16.72 125.56-14.83L125.56-14.83 125.45-1.55Q125.45-0.8 124.93-0.4 124.42 0 123.78 0 123.15 0 122.63-0.34 122.12-0.69 122.12-1.49L122.12-1.49 122.12-3.56Q120.74-0.57 117.17 0.17L117.17 0.17Q116.08 0.46 114.7 0.46 113.32 0.46 111.97 0.06 110.62-0.34 109.59-1.21L109.59-1.21Q107.46-2.99 107.46-6.03L107.46-6.03Q107.46-13.28 119.7-13.28ZM122.12-8.74L122.12-10.69Q121.2-10.57 119.99-10.57 118.78-10.57 117.52-10.55 116.25-10.52 115.1-10.26 113.96-10 113.04-9.48L113.04-9.48Q111.08-8.45 110.97-6.09L110.97-6.09Q110.97-4.25 112.46-3.22L112.46-3.22Q113.61-2.3 115.74-2.24L115.74-2.24Q118.32-2.24 120.22-3.91L120.22-3.91Q121.94-5.52 122.12-8.74L122.12-8.74ZM132.17-1.72L132.17-29.54Q132.17-30.46 132.75-30.86 133.32-31.26 133.78-31.26 134.24-31.26 134.53-31.21 134.82-31.15 135.1-30.86L135.1-30.86Q135.73-30.46 135.73-29.54L135.73-29.54 135.73-1.72Q135.73-0.86 135.16-0.43 134.59 0 133.9 0L133.9 0Q133.21 0 132.69-0.43 132.17-0.86 132.17-1.72L132.17-1.72ZM169.12-1.61L169.12-14.14Q169.12-16.78 167.63-18.28L167.63-18.28Q166.3-19.54 164.55-19.54 162.8-19.54 161.59-19.14 160.38-18.74 159.47-17.82L159.47-17.82Q157.51-15.98 157.51-12.59L157.51-12.59 157.51-1.61Q157.51-0.8 156.94-0.4 156.36 0 155.67 0L155.67 0Q154.98 0 154.52-0.43 154.06-0.86 154.06-1.61L154.06-1.61 154.06-29.66Q154.06-30.46 154.64-30.86 155.21-31.26 155.79-31.26L155.79-31.26Q156.48-31.26 156.99-30.89 157.51-30.52 157.51-29.66L157.51-29.66 157.51-18.1Q158.32-20.11 160.5-21.21L160.5-21.21Q162.51-22.24 164.49-22.24 166.48-22.24 167.86-21.75 169.24-21.26 170.38-20.34L170.38-20.34Q172.68-18.16 172.68-13.91L172.68-13.91 172.68-1.61Q172.68-0.8 172.08-0.4 171.48 0 170.84 0L170.84 0Q170.15 0 169.64-0.43 169.12-0.86 169.12-1.61L169.12-1.61ZM198.83-11.55L198.83-11.55Q198.83-10.34 197.45-10.23L197.45-10.23 181.7-10.23Q181.93-4.37 186.3-2.64L186.3-2.64Q187.51-2.24 189.06-2.24L189.06-2.24Q192.28-2.24 195.61-4.6L195.61-4.6Q196.65-5.17 197.34-4.48L197.34-4.48Q197.68-4.14 197.57-3.79L197.57-3.79Q197.57-2.99 197.16-2.64L197.16-2.64Q194 0.52 188.83 0.46L188.83 0.46Q184.12 0.46 181.24-2.59L181.24-2.59Q178.03-5.75 178.03-10.92L178.03-10.92Q178.03-15.69 180.67-18.79L180.67-18.79Q183.43-22.24 188.49-22.24L188.49-22.24Q193.54-22.24 196.19-19.2L196.19-19.2Q198.72-16.44 198.83-11.55ZM181.82-12.59L195.44-12.59Q195.27-15.69 193.43-17.7L193.43-17.7Q191.7-19.54 188.49-19.54L188.49-19.54Q185.73-19.54 183.77-17.47L183.77-17.47Q181.99-15.4 181.82-12.59L181.82-12.59ZM214.58-13.28L214.58-13.28Q215.78-13.28 216.99-13.22L216.99-13.22 216.99-15.06Q216.99-19.54 211.99-19.54L211.99-19.54Q209.75-19.54 208.71-19.14L208.71-19.14Q206.87-18.45 206.07-17.96 205.26-17.47 204.81-17.47 204.35-17.47 203.94-17.82 203.54-18.16 203.54-18.74L203.54-18.74Q203.54-19.2 204.06-19.66L204.06-19.66Q206.76-22.24 212.05-22.24L212.05-22.24Q218.14-22.24 219.86-18.16L219.86-18.16Q220.44-16.72 220.44-14.83L220.44-14.83 220.32-1.55Q220.32-0.8 219.81-0.4 219.29 0 218.66 0 218.02 0 217.51-0.34 216.99-0.69 216.99-1.49L216.99-1.49 216.99-3.56Q215.61-0.57 212.05 0.17L212.05 0.17Q210.95 0.46 209.58 0.46 208.2 0.46 206.85 0.06 205.49-0.34 204.46-1.21L204.46-1.21Q202.33-2.99 202.33-6.03L202.33-6.03Q202.33-13.28 214.58-13.28ZM216.99-8.74L216.99-10.69Q216.07-10.57 214.86-10.57 213.66-10.57 212.39-10.55 211.13-10.52 209.98-10.26 208.83-10 207.91-9.48L207.91-9.48Q205.95-8.45 205.84-6.09L205.84-6.09Q205.84-4.25 207.33-3.22L207.33-3.22Q208.48-2.3 210.61-2.24L210.61-2.24Q213.2-2.24 215.09-3.91L215.09-3.91Q216.82-5.52 216.99-8.74L216.99-8.74ZM227.04-1.72L227.04-29.54Q227.04-30.46 227.62-30.86 228.19-31.26 228.65-31.26 229.11-31.26 229.4-31.21 229.69-31.15 229.98-30.86L229.98-30.86Q230.61-30.46 230.61-29.54L230.61-29.54 230.61-1.72Q230.61-0.86 230.03-0.43 229.46 0 228.77 0L228.77 0Q228.08 0 227.56-0.43 227.04-0.86 227.04-1.72L227.04-1.72ZM248.88-1.26L248.88-1.26Q248.88 0.46 244.8 0.46L244.8 0.46Q241.75 0.46 240.49-1.21L240.49-1.21Q239.11-2.99 239-7.07L239-7.07 239-19.14 236.47-19.14Q235.78-19.14 235.37-19.57 234.97-20 234.97-20.46L234.97-20.46Q234.97-20.92 235.32-21.38 235.66-21.84 236.47-21.84L236.47-21.84 239.23-21.84 239.46-28.05Q239.57-28.74 240.09-29.11 240.6-29.48 241.18-29.48 241.75-29.48 242.16-29.14 242.56-28.79 242.56-28.05L242.56-28.05 242.56-21.84 246.52-21.84Q247.21-21.84 247.59-21.38 247.96-20.92 247.96-20.46L247.96-20.46Q247.96-19.89 247.59-19.51 247.21-19.14 246.52-19.14L246.52-19.14 242.56-19.14 242.56-8.97Q242.56-4.71 242.85-3.82 243.13-2.93 243.77-2.59 244.4-2.24 245.32-2.24L245.32-2.24 247.56-2.41Q248.19-2.41 248.54-2.01 248.88-1.61 248.88-1.26ZM267.84-1.61L267.84-14.14Q267.84-16.78 266.35-18.28L266.35-18.28Q265.03-19.54 263.27-19.54 261.52-19.54 260.31-19.14 259.11-18.74 258.19-17.82L258.19-17.82Q256.23-15.98 256.23-12.59L256.23-12.59 256.23-1.61Q256.23-0.8 255.66-0.4 255.08 0 254.4 0L254.4 0Q253.71 0 253.25-0.43 252.79-0.86 252.79-1.61L252.79-1.61 252.79-29.66Q252.79-30.46 253.36-30.86 253.94-31.26 254.51-31.26L254.51-31.26Q255.2-31.26 255.72-30.89 256.23-30.52 256.23-29.66L256.23-29.66 256.23-18.1Q257.04-20.11 259.22-21.21L259.22-21.21Q261.23-22.24 263.22-22.24 265.2-22.24 266.58-21.75 267.96-21.26 269.11-20.34L269.11-20.34Q271.41-18.16 271.41-13.91L271.41-13.91 271.41-1.61Q271.41-0.8 270.8-0.4 270.2 0 269.57 0L269.57 0Q268.88 0 268.36-0.43 267.84-0.86 267.84-1.61L267.84-1.61Z" opacity="1" transform="matrix(1,0,0,1,0,0)" fill="#ffffff" class="slogan-text-1" data-fill-palette-color="secondary" id="text-1"></path></svg></g></svg></g></svg></g></svg></g><g transform="matrix(1,0,0,1,83.65244536119367,0)"><svg viewBox="0 0 228.2151092776127 228.2151092776127" height="228.2151092776127" width="228.2151092776127"><g><svg></svg></g><g id="icon-0"><svg viewBox="0 0 228.2151092776127 228.2151092776127" height="228.2151092776127" width="228.2151092776127"><g><path d="M0 114.108c0-63.02 51.088-114.108 114.108-114.108 63.02 0 114.108 51.088 114.107 114.108 0 63.02-51.088 114.108-114.107 114.107-63.02 0-114.108-51.088-114.108-114.107zM114.108 220.862c58.959 0 106.754-47.796 106.754-106.754 0-58.959-47.796-106.754-106.754-106.755-58.959 0-106.754 47.796-106.755 106.755 0 58.959 47.796 106.754 106.755 106.754z" data-fill-palette-color="accent" fill="#ffffff" stroke="transparent"></path><ellipse rx="112.96647909241828" ry="112.96647909241828" cx="114.10755463880635" cy="114.10755463880635" fill="#ffffff" stroke="transparent" stroke-width="0" fill-opacity="1" data-fill-palette-color="accent"></ellipse></g><g transform="matrix(1,0,0,1,64.02564831900537,47.26276475589624)"><svg viewBox="0 0 100.16381263960196 133.6895797658202" height="133.6895797658202" width="100.16381263960196"><g><svg xmlns="http://www.w3.org/2000/svg" xmlns:xlink="http://www.w3.org/1999/xlink" version="1.1" x="0" y="0" viewBox="96 42.447 320 427.10699999999997" style="enable-background:new 0 0 512 512;" xml:space="preserve" height="133.6895797658202" width="100.16381263960196" class="icon-cg-0" data-fill-palette-color="quaternary" id="cg-0"><g fill="#ffffff" data-fill-palette-color="quaternary"><g fill="#ffffff" data-fill-palette-color="quaternary"><g fill="#ffffff" data-fill-palette-color="quaternary"><path d="M315.991 469.554c-2.012 0-4.042-0.605-5.804-1.863l-140-100c-4.494-3.21-5.535-9.456-2.325-13.95 3.21-4.495 9.456-5.533 13.95-2.325l140 100c4.494 3.21 5.535 9.456 2.325 13.95C322.186 468.098 319.111 469.554 315.991 469.554z" fill="#000000" data-fill-palette-color="quaternary"></path></g><g fill="#ffffff" data-fill-palette-color="quaternary"><path d="M255.992 389.554c-2.088 0-4.193-0.651-5.992-2.001l-80-60c-4.418-3.313-5.313-9.582-2-14 3.313-4.419 9.582-5.314 14-2l80 60c4.418 3.313 5.313 9.582 2 14C262.035 388.172 259.032 389.554 255.992 389.554z" fill="#000000" data-fill-palette-color="quaternary"></path></g><g fill="#ffffff" data-fill-palette-color="quaternary"><path d="M316 469.553H136c-5.523 0-10-4.478-10-10V335.148c0-5.522 4.477-10 10-10s10 4.478 10 10v114.404h160v-100c0-5.522 4.478-10 10-10h50v-15.596c0-5.522 4.478-10 10-10s10 4.478 10 10v25.596c0 5.522-4.478 10-10 10h-50v100C326 465.075 321.522 469.553 316 469.553zM136 295.148c-5.523 0-10-4.478-10-10v-98.662c0-3.937 2.309-7.506 5.899-9.121 3.59-1.612 7.793-0.971 10.738 1.641 5.724 5.079 12.195 9.33 19.233 12.634 8.914 4.186 18.607 6.819 28.817 7.831 10.21-1.012 19.903-3.645 28.818-7.831 12.52-5.878 22.903-14.458 30.861-25.501 7.779-10.794 12.597-23.058 14.32-36.451 0.457-3.551 0.688-7.192 0.688-10.825 0-4.043-0.284-8.116-0.849-12.182-7.508 1.394-14.691 3.711-21.444 6.923-5.541 2.636-10.77 5.894-15.54 9.681-2.732 2.169-6.396 2.757-9.67 1.553-3.273-1.204-5.683-4.027-6.358-7.449-1.55-7.849-4.295-15.456-8.161-22.609-3.057-5.655-6.831-11.044-11.215-16.017-1.973-2.237-2.844-5.238-2.375-8.184 0.468-2.946 2.227-5.528 4.796-7.043C217.954 49.74 244.732 42.447 272 42.447c37.925 0 73.761 13.897 100.906 39.13C400.695 107.409 416 142.204 416 179.553v80c0 5.522-4.478 10-10 10h-20v4.404c0 5.522-4.478 10-10 10s-10-4.478-10-10v-14.404c0-5.523 4.478-10 10-10h20v-70c0-64.572-55.626-117.105-124-117.105-19.844 0-39.385 4.442-57.146 12.923 2.226 3.205 4.263 6.512 6.095 9.901 2.463 4.558 4.563 9.268 6.286 14.094 2.364-1.37 4.786-2.645 7.257-3.82 11.55-5.495 24.076-8.857 37.227-9.996 4.931-0.421 9.432 2.818 10.586 7.63 2.038 8.493 3.071 17.134 3.071 25.685 0 4.483-0.287 8.984-0.853 13.377-2.151 16.729-8.185 32.068-17.931 45.591-9.969 13.834-22.952 24.571-38.586 31.911-10.854 5.096-22.597 8.319-34.919 9.586-0.775 0.167-1.582 0.244-2.399 0.218-0.823 0.03-1.627-0.051-2.401-0.218-12.323-1.268-24.063-4.49-34.917-9.586-2.515-1.181-4.974-2.46-7.37-3.833v79.237C146 290.671 141.523 295.148 136 295.148z" fill="#000000" data-fill-palette-color="quaternary"></path></g><g fill="#ffffff" data-fill-palette-color="quaternary"><path d="M158.434 124.198c-2.147 0-4.271-0.691-6.034-2.025-0.389-0.294-0.79-0.574-1.188-0.855l-0.655-0.464c-4.398-3.137-5.51-9.199-2.511-13.692 1.294-1.938 2.694-3.917 4.163-5.882 2.903-3.884 8.174-5.125 12.507-2.945 4.332 2.181 6.474 7.155 5.083 11.801-0.624 2.083-1.157 4.154-1.585 6.154-0.715 3.343-3.087 6.088-6.291 7.281C160.788 123.992 159.607 124.198 158.434 124.198z" fill="#000000" data-fill-palette-color="quaternary"></path></g><g fill="#ffffff" data-fill-palette-color="quaternary"><path d="M190.991 219.553c-0.262 0-0.525-0.01-0.791-0.031-0.173-0.014-0.344-0.031-0.515-0.051-5.092-0.512-8.983-4.792-8.998-9.922-0.014-5.153 3.89-9.47 9.012-9.979l0.357-0.039c3.254-0.311 6.441 0.99 8.556 3.474 2.017 2.37 2.81 5.535 2.166 8.562C199.818 216.233 195.704 219.553 190.991 219.553z" fill="#000000" data-fill-palette-color="quaternary"></path></g><g fill="#ffffff" data-fill-palette-color="quaternary"><path d="M190.379 219.487c-0.307 0-0.614-0.014-0.922-0.042-12.75-1.18-24.891-4.443-36.087-9.701-8.772-4.119-16.85-9.427-24.007-15.778-5.436-4.823-10.341-10.251-14.58-16.133-9.746-13.523-15.778-28.862-17.931-45.592-0.565-4.398-0.852-8.9-0.852-13.38 0-8.55 1.033-17.19 3.07-25.681 1.155-4.812 5.655-8.049 10.586-7.63 13.152 1.138 25.678 4.501 37.227 9.995 5.25 2.498 10.393 5.535 15.288 9.028l0.559 0.396c0.583 0.411 1.166 0.824 1.735 1.254 3.098 2.343 4.558 6.269 3.746 10.066-1.154 5.396-1.743 10.914-1.75 16.398 0 13.821 3.469 26.965 10.312 39.144 4.792 8.532 11.112 16.276 18.783 23.02 1.733 1.523 2.887 3.6 3.264 5.877 0.387 2.336 0.807 4.44 1.283 6.432 0.75 3.136-0.058 6.44-2.169 8.876C196.026 218.239 193.263 219.487 190.379 219.487zM116.848 106.682c-0.563 4.064-0.848 8.137-0.848 12.179 0 3.63 0.232 7.274 0.689 10.829 1.723 13.393 6.541 25.656 14.319 36.45 3.38 4.69 7.292 9.019 11.629 12.867 5.724 5.079 12.194 9.33 19.233 12.634 1.853 0.87 3.739 1.673 5.657 2.408-3.031-3.959-5.766-8.105-8.19-12.421-8.423-14.992-12.875-31.889-12.875-48.864 0-0.004 0-0.097 0-0.101 0.006-4.641 0.343-9.297 1.006-13.912-2.991-1.941-6.065-3.666-9.176-5.146C131.54 110.394 124.356 108.076 116.848 106.682z" fill="#000000" data-fill-palette-color="quaternary"></path></g><g fill="#ffffff" data-fill-palette-color="quaternary"><path d="M190.384 219.553c-4.675 0-8.761-3.265-9.763-7.872-0.574-2.414-1.075-4.93-1.531-7.686-0.691-4.172 1.317-8.327 5.015-10.378 0.634-0.351 1.294-0.628 1.968-0.831 6.763-6.322 12.394-13.482 16.768-21.33 6.732-12.081 10.153-25.109 10.167-38.721l0-0.092c0-5.103-0.502-10.234-1.493-15.253-0.725-3.672 0.662-7.441 3.593-9.769 5.955-4.727 12.476-8.791 19.383-12.077 11.55-5.495 24.076-8.857 37.227-9.996 4.931-0.421 9.432 2.818 10.586 7.63 2.038 8.492 3.071 17.134 3.071 25.685 0 4.483-0.287 8.984-0.853 13.377-2.151 16.729-8.185 32.068-17.931 45.591-9.969 13.834-22.952 24.571-38.586 31.911-11.182 5.25-23.305 8.512-36.035 9.696l-0.344 0.037 0.103-0.01c-0.194 0.022-0.373 0.041-0.552 0.055C190.911 219.543 190.646 219.553 190.384 219.553zM232.176 119.873c0.553 4.238 0.832 8.512 0.832 12.771 0.001 0.052 0 0.061 0 0.113-0.018 17.053-4.29 33.349-12.697 48.436-2.703 4.849-5.788 9.478-9.237 13.865 2.879-0.991 5.693-2.131 8.433-3.417 12.52-5.878 22.903-14.458 30.861-25.501 7.779-10.794 12.597-23.058 14.32-36.451 0.457-3.551 0.688-7.192 0.688-10.825 0-4.043-0.284-8.116-0.849-12.182-7.508 1.394-14.691 3.711-21.444 6.923C239.285 115.413 235.633 117.512 232.176 119.873z" fill="#000000" data-fill-palette-color="quaternary"></path></g><g fill="#ffffff" data-fill-palette-color="quaternary"><path d="M189.66 212.996c-2.333 0-4.666-0.813-6.544-2.438-0.198-0.171-0.392-0.346-0.584-0.522l-0.186-0.168c-9.365-8.231-17.108-17.734-23.009-28.239-8.423-14.992-12.875-31.889-12.875-48.864 0-0.004 0-0.097 0-0.101 0.008-6.88 0.746-13.796 2.192-20.557 0.539-2.521 1.207-5.115 1.983-7.709 2.04-6.818 4.822-13.451 8.268-19.709 6.167-11.2 14.372-21.243 24.389-29.848 3.754-3.225 9.302-3.219 13.049 0.013 3.817 3.293 7.449 6.887 10.797 10.683 5.386 6.108 10.031 12.747 13.809 19.735 4.821 8.922 8.249 18.424 10.188 28.246 1.242 6.293 1.872 12.728 1.872 19.125v0.103c-0.018 17.063-4.29 33.36-12.697 48.447-6.143 11.02-14.262 20.907-24.134 29.388C194.303 212.191 191.981 212.996 189.66 212.996zM189.789 76.2c-5.282 5.515-9.759 11.588-13.364 18.136-2.763 5.018-4.993 10.333-6.627 15.796-0.625 2.087-1.158 4.157-1.586 6.157-1.154 5.396-1.743 10.914-1.75 16.398 0 13.821 3.469 26.965 10.312 39.144 3.508 6.246 7.834 12.069 12.91 17.386 5.178-5.408 9.586-11.356 13.156-17.762 6.732-12.081 10.153-25.109 10.167-38.721v-0.092c0-5.101-0.502-10.232-1.493-15.252-1.55-7.85-4.295-15.456-8.161-22.609-3.057-5.655-6.831-11.044-11.215-16.017C191.373 77.896 190.589 77.041 189.789 76.2z" fill="#000000" data-fill-palette-color="quaternary"></path></g></g></g></svg></g></svg></g></svg></g></svg></g><g></g></svg></g><defs></defs></svg><rect width="246.6359432999458" height="247.2" fill="none" stroke="none" visibility="hidden"></rect></g></svg></g></svg>